<?xml version="1.0" encoding="utf-8"?>
<!-- Generator: Adobe Illustrator 26.0.3, SVG Export Plug-In . SVG Version: 6.00 Build 0)  -->
<svg version="1.0" id="katman_1" xmlns="http://www.w3.org/2000/svg" xmlns:xlink="http://www.w3.org/1999/xlink" x="0px" y="0px"
	 viewBox="0 0 600 450" style="enable-background:new 0 0 600 450;" xml:space="preserve">
<style type="text/css">
	.st0{fill:#28767C;}
</style>
<path id="Path_1" class="st0" d="M359.9,261.5h-12.4l-4.4-4.3c36.9-43,32-107.8-11-144.7s-107.8-32-144.7,11s-32,107.8,11,144.7
	c38.4,33,95.2,33,133.7,0l4.3,4.4v12.4l78.8,78.6l23.5-23.5L359.9,261.5z M265.3,261.5c-39.1-0.1-70.8-31.8-70.7-70.9
	c0.1-39.1,31.8-70.8,70.9-70.7c39.1,0.1,70.8,31.8,70.7,70.9c0,18.7-7.5,36.7-20.7,49.9C302.2,254.1,284.1,261.5,265.3,261.5z"/>
</svg>
